<svg width="27" height="27" viewBox="0 0 27 27" fill="none" xmlns="http://www.w3.org/2000/svg">
<path fill-rule="evenodd" clip-rule="evenodd" d="M25 13.5C25 19.8513 19.8513 25 13.5 25C7.14873 25 2 19.8513 2 13.5C2 7.14873 7.14873 2 13.5 2C19.8513 2 25 7.14873 25 13.5ZM27 13.5C27 20.9558 20.9558 27 13.5 27C6.04416 27 0 20.9558 0 13.5C0 6.04416 6.04416 0 13.5 0C20.9558 0 27 6.04416 27 13.5ZM13.2436 19.9033V14.4517H7V12.4517H13.2436V7H15.2436V12.4517H20.7358V14.4517H15.2436V19.9033H13.2436Z" fill="white"/>
</svg>
