<svg width="100" height="45" viewBox="0 0 100 45" fill="none" xmlns="http://www.w3.org/2000/svg">
<path fill-rule="evenodd" clip-rule="evenodd" d="M95.8731 16.0971C94.9962 15.6514 94.016 15.4285 92.9327 15.4285C91.7634 15.4285 90.7145 15.6857 89.786 16.2C89.3025 16.4588 88.8726 16.7874 88.4963 17.1857V15.66H83.8277V29.5971H88.7284V22.86C88.7284 22.5784 88.7445 22.3162 88.7766 22.0734C88.8324 21.6511 88.9367 21.2876 89.0895 20.9828C89.2691 20.6248 89.5012 20.3384 89.786 20.1234C89.883 20.0502 89.9862 19.9852 90.0955 19.9285C90.5254 19.6885 90.9982 19.5685 91.5141 19.5685C92.2363 19.5685 92.7952 19.8 93.1907 20.2628C93.6033 20.7085 93.8097 21.4285 93.8097 22.4228V29.5971H98.7104V21.6257C98.7104 20.1857 98.4524 19.0114 97.9366 18.1028C97.4379 17.1943 96.7501 16.5257 95.8731 16.0971ZM96.45 14.9471C95.3763 14.4033 94.1953 14.1428 92.9327 14.1428C91.8123 14.1428 90.7576 14.3463 89.786 14.7677V14.3742H82.5381V30.8828H90.0181V22.86C90.0181 22.2069 90.1223 21.7986 90.243 21.5578C90.3763 21.2922 90.5286 21.1532 90.6905 21.0692L90.7082 21.0601L90.7256 21.0503C90.9538 20.9229 91.2081 20.8543 91.5141 20.8543C91.9352 20.8543 92.1042 20.974 92.2089 21.0966L92.2256 21.1161L92.243 21.1349C92.332 21.231 92.52 21.5573 92.52 22.4228V30.8828H100V21.6257C100 20.0476 99.7196 18.6373 99.0635 17.4775C98.4475 16.3588 97.5744 15.499 96.45 14.9471Z" fill="#ADADAD" fill-opacity="0.54"/>
<path d="M92.9326 15.4285C94.0159 15.4285 94.9961 15.6513 95.873 16.097C96.75 16.5256 97.4378 17.1942 97.9365 18.1028C98.4523 19.0113 98.7103 20.1856 98.7103 21.6256V29.597H93.8096V22.4228C93.8096 21.4285 93.6032 20.7085 93.1905 20.2628C92.7951 19.7999 92.2362 19.5685 91.514 19.5685C90.9981 19.5685 90.5253 19.6885 90.0954 19.9285C89.6655 20.1513 89.3302 20.5028 89.0894 20.9828C88.8487 21.4628 88.7283 22.0885 88.7283 22.8599V29.597H83.8276V15.6599H88.4962V19.6199L87.5934 18.4628C88.1265 17.4513 88.8573 16.697 89.7859 16.1999C90.7144 15.6856 91.7633 15.4285 92.9326 15.4285Z" fill="#FDA25C"/>
<path fill-rule="evenodd" clip-rule="evenodd" d="M76.3994 27.7948V29.5971H80.9647V21.8571C80.9647 19.6457 80.3371 18.0257 79.0818 16.9971C77.8438 15.9514 76.0898 15.4285 73.82 15.4285C72.7195 15.4285 71.6104 15.5743 70.4927 15.8657C69.3922 16.14 68.4465 16.5343 67.6555 17.0485L69.3062 20.3657C69.6316 20.1108 70.0042 19.8951 70.4238 19.7185C70.6251 19.6338 70.8372 19.5581 71.0602 19.4914C71.748 19.2685 72.4272 19.1571 73.0978 19.1571C74.1296 19.1571 74.8776 19.3714 75.3418 19.8C75.4429 19.8863 75.5333 19.9806 75.6132 20.0828C75.8792 20.4234 76.0275 20.8519 76.0581 21.3685H73.2784C71.834 21.3685 70.6561 21.54 69.7447 21.8828C69.5204 21.963 69.3102 22.0525 69.1141 22.1513C69.0166 22.2005 68.9225 22.2519 68.832 22.3056C68.3644 22.5831 67.9894 22.9222 67.7071 23.3228C67.2772 23.94 67.0622 24.6771 67.0622 25.5343C67.0622 26.34 67.26 27.0685 67.6555 27.72C68.0682 28.3714 68.6614 28.8857 69.4352 29.2628C70.209 29.64 71.1548 29.8285 72.2725 29.8285C73.4374 29.8285 74.3831 29.61 75.1097 29.173C75.1446 29.152 75.179 29.1305 75.2129 29.1085C75.7207 28.7749 76.1162 28.3369 76.3994 27.7948ZM73.949 23.9143C73.158 23.9143 72.5992 24.0428 72.2725 24.3C71.9629 24.5571 71.8082 24.9 71.8082 25.3285C71.8082 25.7571 71.9715 26.1 72.2982 26.3571C72.625 26.6143 73.072 26.7428 73.6395 26.7428C74.0481 26.7428 74.4264 26.6673 74.7744 26.5162C74.8804 26.4702 74.9835 26.4171 75.0839 26.3571C75.1014 26.3464 75.1188 26.3354 75.1359 26.3242C75.5356 26.0639 75.835 25.6891 76.0339 25.2C76.0442 25.1746 76.0543 25.1488 76.064 25.1228V23.9143H73.949ZM74.4975 25.2H73.949C73.6172 25.2 73.3828 25.2275 73.2266 25.2635C73.1665 25.2773 73.1252 25.2907 73.0987 25.3007C73.0982 25.3083 73.0978 25.3176 73.0978 25.3285C73.0978 25.3366 73.0981 25.3433 73.0984 25.3488C73.1293 25.3726 73.2621 25.4571 73.6395 25.4571C73.951 25.4571 74.1987 25.3857 74.4139 25.2585C74.4423 25.2408 74.4702 25.2214 74.4975 25.2ZM75.1097 30.6103C74.2659 30.963 73.3048 31.1143 72.2725 31.1143C71.0147 31.1143 69.8634 30.9026 68.8688 30.4179C67.9055 29.9484 67.1197 29.282 66.5651 28.4065L66.5585 28.3962L66.5522 28.3857C66.0276 27.5217 65.7726 26.5605 65.7726 25.5343C65.7726 24.4532 66.0474 23.4513 66.6478 22.5895L66.6519 22.5836C67.0713 21.9886 67.6175 21.5165 68.2576 21.1513L65.9906 16.596L66.951 15.9716C67.8818 15.3664 68.9634 14.9222 70.1732 14.62C71.3898 14.3034 72.6063 14.1428 73.82 14.1428C76.2706 14.1428 78.3599 14.706 79.9082 16.01C81.5548 17.3637 82.2544 19.4133 82.2544 21.8571V30.8828H75.1097V30.6103Z" fill="#ADADAD" fill-opacity="0.54"/>
<path d="M76.3993 29.597V26.9999L76.0639 26.357V21.5742C76.0639 20.8028 75.8232 20.2113 75.3417 19.7999C74.8775 19.3713 74.1295 19.157 73.0977 19.157C72.4271 19.157 71.7479 19.2685 71.0601 19.4913C70.3723 19.697 69.7876 19.9885 69.3061 20.3656L67.6554 17.0485C68.4464 16.5342 69.3921 16.1399 70.4926 15.8656C71.6103 15.5742 72.7194 15.4285 73.8199 15.4285C76.0897 15.4285 77.8437 15.9513 79.0817 16.997C80.337 18.0256 80.9646 19.6456 80.9646 21.857V29.597H76.3993ZM72.2723 29.8285C71.1546 29.8285 70.2089 29.6399 69.4351 29.2628C68.6613 28.8856 68.0681 28.3713 67.6554 27.7199C67.2599 27.0685 67.0621 26.3399 67.0621 25.5342C67.0621 24.677 67.2771 23.9399 67.707 23.3228C68.154 22.6885 68.8333 22.2085 69.7446 21.8828C70.656 21.5399 71.8339 21.3685 73.2783 21.3685H76.5798V23.9142H73.9489C73.1579 23.9142 72.5991 24.0428 72.2723 24.2999C71.9628 24.557 71.8081 24.8999 71.8081 25.3285C71.8081 25.757 71.9714 26.0999 72.2981 26.357C72.6249 26.6142 73.0719 26.7428 73.6394 26.7428C74.1724 26.7428 74.6539 26.6142 75.0838 26.357C75.5309 26.0828 75.8576 25.6713 76.0639 25.1228L76.7346 26.9228C76.4766 27.8828 75.9694 28.6113 75.2128 29.1085C74.4734 29.5885 73.4932 29.8285 72.2723 29.8285Z" fill="#FDA25C"/>
<path fill-rule="evenodd" clip-rule="evenodd" d="M42.5586 30.6516V3.86056H51.2459L51.4962 3.57153V3.86056H53.6556C55.7305 3.86056 57.5988 4.23384 59.2155 5.04406C60.8538 5.85509 62.1692 7.06197 63.101 8.67501C64.0421 10.2814 64.4828 12.1503 64.4828 14.2086C64.4828 16.2516 64.0391 18.11 63.0978 19.7142C62.1663 21.3017 60.8554 22.5026 59.2278 23.3334L59.2189 23.338C57.6014 24.1493 55.732 24.5231 53.6556 24.5231H51.4962V30.6516H42.5586ZM49.9966 22.8487H53.6556C55.5751 22.8487 57.2247 22.5027 58.6043 21.8105C60.004 21.0961 61.0837 20.0915 61.8435 18.7966C62.6033 17.5017 62.9832 15.9723 62.9832 14.2086C62.9832 12.4225 62.6033 10.882 61.8435 9.58714C61.0837 8.26992 60.004 7.26526 58.6043 6.57315C57.2247 5.88105 55.5751 5.535 53.6556 5.535H44.0582V28.9771H49.9966V22.8487ZM49.9966 10.7593V17.6245H53.2957C54.5354 17.6245 55.4552 17.3231 56.055 16.7203C56.6748 16.1175 56.9848 15.2802 56.9848 14.2086C56.9848 13.1146 56.6748 12.2662 56.055 11.6634C55.4552 11.0607 54.5354 10.7593 53.2957 10.7593H49.9966ZM51.4962 15.95H53.2957C54.3564 15.95 54.8425 15.686 55.0518 15.4757L55.0609 15.4665L55.0701 15.4576C55.3069 15.2273 55.4852 14.8857 55.4852 14.2086C55.4852 13.4969 55.2999 13.1496 55.0701 12.9261L55.0609 12.9172L55.0518 12.908C54.8425 12.6977 54.3564 12.4337 53.2957 12.4337H51.4962V15.95Z" fill="#ADADAD" fill-opacity="0.54"/>
<path d="M44.0583 28.9771V5.53491H53.6558C55.5753 5.53491 57.2248 5.88096 58.6045 6.57306C60.0041 7.26517 61.0838 8.26983 61.8436 9.58705C62.6034 10.882 62.9833 12.4224 62.9833 14.2085C62.9833 15.9722 62.6034 17.5016 61.8436 18.7965C61.0838 20.0914 60.0041 21.096 58.6045 21.8105C57.2248 22.5026 55.5753 22.8486 53.6558 22.8486H47.3575L49.9968 19.9686V28.9771H44.0583ZM49.9968 20.6718L47.3575 17.6244H53.2959C54.5356 17.6244 55.4553 17.323 56.0552 16.7202C56.675 16.1174 56.9849 15.2801 56.9849 14.2085C56.9849 13.1145 56.675 12.2662 56.0552 11.6634C55.4553 11.0606 54.5356 10.7592 53.2959 10.7592H47.3575L49.9968 7.71168V20.6718Z" fill="#FDA25C"/>
<path fill-rule="evenodd" clip-rule="evenodd" d="M59.3242 30.6514V9H66.8042V30.6514H59.3242ZM60.6139 29.3657H65.5146V10.2857H60.6139V29.3657Z" fill="#ADADAD" fill-opacity="0.54"/>
<path d="M60.6139 29.3656V10.2856H65.5146V29.3656H60.6139Z" fill="#FDA25C"/>
<path d="M1.28967 29.5714V1.28564H7.74588L19.2324 20.5199H15.826L26.9957 1.28564H33.4519L33.5311 29.5714H26.3223L26.2431 12.4787H27.471L19.1136 26.7832H15.628L7.03292 12.4787H8.53805V29.5714H1.28967Z" fill="#FDA25C"/>
<path fill-rule="evenodd" clip-rule="evenodd" d="M0 30.8571V15.4286V0H9.18325L17.4762 13.7835L25.5403 0H34.7337L34.8207 30.8571H24.0826L24.0391 21.5505L20.1276 28.1957H14.6271L10.7798 21.8403V30.8571H0ZM8.38277 14.7857L15.6935 26.2671H19.0456L26.438 14.1429L26.6257 28.9286H32.9107L32.8345 1.92857H26.6257L17.499 17.5282L8.11341 1.92857H1.90456V28.9286H8.38277V14.7857Z" fill="#ADADAD" fill-opacity="0.54"/>
<path d="M32.7463 43.8212C31.9942 43.8212 31.2334 43.6587 30.4638 43.3339C29.7117 43.0323 27.592 40.7959 27.1198 40.2854L29.0662 35.5712C29.3636 35.9192 31.2768 37.7427 31.6616 37.9283C32.0638 38.1371 32.5744 37.9283 32.9592 37.9283C33.5014 37.9283 33.2932 38.2531 33.6081 37.9283C33.9229 37.6035 34.4341 37.2781 34.6615 36.582L35.3174 34.3894L35.7109 33.7282L40.5383 17.8926H45.287L39.1478 37.5217C38.6581 39.1459 38.0897 40.4104 37.4425 41.3153C36.8129 42.2434 36.1045 42.8931 35.3174 43.2643C34.5478 43.6355 33.6908 43.8212 32.7463 43.8212ZM34.6878 37.5565L28.4174 17.8926H33.5334L38.1509 33.1365L34.6878 37.5565Z" fill="#FDA25C"/>
<path fill-rule="evenodd" clip-rule="evenodd" d="M27.1225 17.8813L33.1463 36.5399C33.0933 36.5745 32.9675 36.6315 32.7096 36.6315C32.5125 36.6315 32.2869 36.5794 32.0254 36.4453L32.011 36.4379L31.9965 36.431C31.767 36.3217 31.5745 36.1707 31.4087 35.979L28.6731 33.2144L25.7931 40.8186L28.0706 42.9836C28.689 43.6439 29.4431 44.1207 30.2873 44.4563C31.1498 44.8147 32.0182 45.0001 32.8884 45.0001C33.933 45.0001 34.9167 44.7974 35.8245 44.3657C36.8085 43.9061 37.6664 43.1152 38.3998 42.052C39.1694 40.9836 39.7936 39.5718 40.305 37.8991L46.5849 18.0666V16.7144H39.6147L37.0583 24.9972L34.5182 16.7144H27.12L27.1225 17.8813ZM37.0546 29.4739L33.6548 18.3881H28.6731L34.6064 36.7665C34.58 36.8319 34.5531 36.8951 34.5257 36.9561C34.3964 37.2441 34.2556 37.4839 34.1032 37.6755C34.057 37.7336 34.0097 37.7873 33.9614 37.8366C33.8663 37.9335 33.7606 38.0154 33.6442 38.0822C33.3853 38.2309 33.0738 38.3052 32.7096 38.3052C32.3721 38.3052 32.0277 38.2238 31.6765 38.0609C31.6377 38.0429 31.5989 38.0239 31.5599 38.004C31.1852 37.8254 29.3664 36.2481 29.0769 35.9133L27.3908 40.3654C27.8506 40.8563 29.9334 42.5676 30.6658 42.8577C31.4152 43.1701 32.1561 43.3264 32.8884 43.3264C33.8081 43.3264 34.6427 43.1478 35.3921 42.7908C36.1585 42.4337 36.8483 41.8089 37.4614 40.9162C38.0916 40.0459 38.6451 38.8297 39.122 37.2675L45.1001 18.3881H40.476L37.0546 29.4739Z" fill="#ADADAD" fill-opacity="0.54"/>
</svg>
