<svg width="31" height="40" viewBox="0 0 31 40" fill="none" xmlns="http://www.w3.org/2000/svg">
<path fill-rule="evenodd" clip-rule="evenodd" d="M3.75588 3.63299C1.57393 3.97857 0.0852743 6.02754 0.43086 8.20948L4.88924 36.3586C5.23483 38.5405 7.28379 40.0292 9.46573 39.6836L27.2441 36.8678C29.4261 36.5222 30.9147 34.4732 30.5691 32.2913L29.787 27.3529L27.8116 27.6657L28.5938 32.6042C28.7666 33.6951 28.0222 34.7196 26.9313 34.8924L9.15286 37.7082C8.06189 37.881 7.03741 37.1367 6.86462 36.0457L2.40624 7.89661C2.23344 6.80564 2.97777 5.78116 4.06874 5.60836L21.8471 2.79254C22.9381 2.61975 23.9626 3.36408 24.1354 4.45505L24.9958 9.88734L26.9711 9.57447L26.1108 4.14218C25.7652 1.96024 23.7162 0.47158 21.5343 0.817165L3.75588 3.63299ZM30.7071 18.2928L24.3432 11.9288C23.9526 11.5383 23.3195 11.5383 22.929 11.9288C22.5384 12.3193 22.5384 12.9525 22.929 13.343L27.5858 17.9999H13V19.9999H27.5858L22.929 24.6567C22.5384 25.0473 22.5384 25.6804 22.929 26.071C23.3195 26.4615 23.9526 26.4615 24.3432 26.071L30.7071 19.707C31.0977 19.3165 31.0977 18.6833 30.7071 18.2928Z" fill="#FF4E00"/>
</svg>
