<svg width="22" height="26" viewBox="0 0 22 26" fill="none" xmlns="http://www.w3.org/2000/svg">
<path fill-rule="evenodd" clip-rule="evenodd" d="M3.97598 0C1.76684 0 -0.0132358 1.79083 7.41568e-05 3.99993L0.104932 21.4036C0.118242 23.6127 1.9199 25.4035 4.12903 25.4035H17.2194C19.4285 25.4035 21.2086 23.6127 21.1953 21.4036L21.1807 18.9766H19.1807L19.1953 21.4036C19.2019 22.5081 18.3119 23.4035 17.2073 23.4035H4.11698C3.01241 23.4035 2.11159 22.5081 2.10493 21.4036L2.00007 3.99993C1.99342 2.89538 2.88346 1.99996 3.98803 1.99996H17.0784C18.1829 1.99996 19.0838 2.89538 19.0904 3.99993L19.1071 6.76607H21.1071L21.0904 3.99993C21.0771 1.79083 19.2755 0 17.0663 0H3.97598ZM20.6234 12.3751L15.7469 8.36615C15.2448 7.87799 14.4307 7.87793 13.9286 8.36609C13.4265 8.85425 13.4265 9.64577 13.9286 10.1339L16.6103 12.009H12V14.509H16.6103L14.039 15.8661C13.5369 16.3543 13.5369 17.1457 14.039 17.6339C14.5411 18.122 15.3552 18.122 15.8573 17.6339L20.6234 14.1429C21.1255 13.6547 21.1255 12.8633 20.6234 12.3751Z" fill="white"/>
</svg>
